#!OML:ASF F:\VICON\USERDATA\INSTALL\rory3\rory3.ASF
:FULLY-SPECIFIED
:DEGREES
1430
root 18.7459 17.6278 -4.29229 -13.1988 -82.1928 29.8079
lowerback 14.1539 -1.30794 -3.11439
upperback 6.08665 -2.32237 5.55464
thorax -1.11924 -1.43779 8.01154
lowerneck -5.6007 -5.5502 -8.60534
upperneck 36.4978 -11.1314 6.58963
head 14.3167 -5.68596 2.54993
rclavicle -5.32743e-014 8.90555e-014
rhumerus 7.15536 -42.0913 -76.677
rradius 32.5786
rwrist -14.6072
rhand -29.1708 -25.1261
rfingers 7.12502
rthumb -2.5167 -55.091
lclavicle -5.32743e-014 8.90555e-014
lhumerus -17.8531 -55.3814 103.604
lradius 76.8639
lwrist 73.1694
lhand -4.50218 65.195
lfingers 7.12502
lthumb 21.2717 -94.0477
rfemur -40.122 -5.48675 9.5023
rtibia 47.5624
rfoot -19.405 -9.11173
rtoes 4.06879
lfemur -32.4946 0.524429 -28.0289
ltibia 30.8469
lfoot -11.9585 -3.54841
ltoes -15.2807
1431
root 18.7668 17.6256 -4.28322 -11.8241 -82.2019 28.5009
lowerback 14.0542 -1.50105 -2.96322
upperback 6.09053 -2.55726 5.44924
thorax -1.03748 -1.55234 7.83483
lowerneck -5.66674 -5.351 -8.60928
upperneck 36.6025 -10.88 6.66345
head 14.3578 -5.57636 2.61666
rclavicle 7.31528e-014 6.36111e-015
rhumerus 7.22673 -43.142 -75.7914
rradius 32.2988
rwrist -13.7282
rhand -30.1018 -25.1801
rfingers 7.12502
rthumb -3.41575 -55.1324
lclavicle 7.31528e-014 6.36111e-015
lhumerus -17.646 -55.3586 103.545
lradius 77.2114
lwrist 73.1084
lhand -3.65266 64.7421
lfingers 7.12502
lthumb 22.0875 -93.5006
rfemur -40.0713 -5.64922 9.87913
rtibia 47.8445
rfoot -19.7004 -9.05454
rtoes 4.34367
lfemur -32.6583 0.428312 -27.8463
ltibia 30.8208
lfoot -11.8474 -3.62775
ltoes -15.2725
1432
root 18.7864 17.6259 -4.27133 -10.663 -82.2554 27.4728
lowerback 13.8976 -1.66133 -2.79255
upperback 6.04829 -2.74135 5.29821
thorax -0.987748 -1.63584 7.58805
lowerneck -5.66092 -5.20532 -8.42039
upperneck 36.6756 -10.6899 6.58274
head 14.3497 -5.48668 2.57948
rclavicle -3.97569e-015 -7.95139e-015
rhumerus 7.02444 -43.8661 -74.8168
rradius 32.1149
rwrist -13.3893
rhand -31.1242 -25.1959
rfingers 7.12502
rthumb -4.40305 -55.1301
lclavicle -3.97569e-015 -7.95139e-015
lhumerus -17.673 -55.4693 103.62
lradius 77.9227
lwrist 74.7227
lhand -5.50005 65.8421
lfingers 7.12502
lthumb 20.3129 -94.7998
rfemur -40.0892 -5.7912 10.212
rtibia 48.0725
rfoot -19.8772 -8.94638
rtoes 4.56144
lfemur -32.8543 0.207546 -27.6609
ltibia 30.7686
lfoot -11.7747 -3.42146
ltoes -15.7353
1433
root 18.8058 17.6287 -4.25643 -11.0555 -82.4335 28.0017
lowerback 13.7753 -1.87593 -2.90566
upperback 5.98852 -3.03262 5.23777
thorax -0.938293 -1.78041 7.62151
lowerneck -5.64263 -4.93122 -8.56207
upperneck 36.7765 -10.1859 6.32027
head 14.3279 -5.33064 2.57207
rclavicle 2.46493e-014 -1.98785e-014
rhumerus 7.00355 -44.0434 -74.0236
rradius 31.9647
rwrist -13.1526
rhand -31.9778 -25.0714
rfingers 7.12502
rthumb -5.22732 -54.9869
lclavicle 2.46493e-014 -1.98785e-014
lhumerus -17.6222 -54.8816 103.794
lradius 78.193
lwrist 74.9945
lhand -5.83491 66.2855
lfingers 7.12502
lthumb 19.9911 -95.2772
rfemur -40.1402 -5.84021 10.3314
rtibia 48.2516
rfoot -19.9977 -8.83713
rtoes 4.54242
lfemur -33.0028 0.138106 -27.6858
ltibia 30.6726
lfoot -11.7434 -3.28161
ltoes -16.2457
1434
root 18.823 17.6397 -4.24458 -11.6718 -82.7177 28.6646
lowerback 13.7032 -1.89975 -2.90178
upperback 6.00967 -3.06434 5.08313
thorax -0.883005 -1.79438 7.45013
lowerneck -5.76521 -4.78464 -8.39192
upperneck 36.9368 -9.98277 6.21202
head 14.39 -5.23655 2.52468
rclavicle -6.36111e-015 2.70347e-014
rhumerus 6.82865 -44.6952 -73.2484
rradius 32.0043
rwrist -12.8295
rhand -32.703 -24.3914
rfingers 7.12502
rthumb -5.92751 -54.2885
lclavicle -6.36111e-015 2.70347e-014
lhumerus -17.6181 -54.8266 103.919
lradius 78.3941
lwrist 74.597
lhand -5.47737 66.5235
lfingers 7.12502
lthumb 20.3347 -95.4789
rfemur -40.0748 -5.76974 10.482
rtibia 48.387
rfoot -20.3297 -8.83793
rtoes 4.59239
lfemur -33.0336 0.283979 -27.6903
ltibia 30.5506
lfoot -11.6929 -3.3602
ltoes -15.9584
1435
root 18.8402 17.6555 -4.23933 -10.8542 -82.9839 27.8663
lowerback 13.6515 -1.86168 -2.68714
upperback 6.06539 -2.99191 4.92704
thorax -0.829988 -1.75389 7.14216
lowerneck -5.94561 -4.73916 -8.19063
upperneck 37.0884 -10.0114 6.3292
head 14.5005 -5.20672 2.52855
rclavicle 3.81667e-014 -8.50798e-014
rhumerus 6.5777 -45.5019 -72.5264
rradius 32.1249
rwrist -12.6292
rhand -33.3853 -24.5878
rfingers 7.12502
rthumb -6.58622 -54.4654
lclavicle 3.81667e-014 -8.50798e-014
lhumerus -17.6022 -55.1533 103.772
lradius 78.5943
lwrist 74.1069
lhand -4.54689 66.463
lfingers 7.12502
lthumb 21.2287 -95.3206
rfemur -39.9541 -5.70483 10.8625
rtibia 48.4742
rfoot -20.8708 -8.96766
rtoes 4.894
lfemur -33.0483 0.311924 -27.4402
ltibia 30.4259
lfoot -11.5541 -3.3564
ltoes -15.4811
1436
root 18.8601 17.6641 -4.23405 -9.6532 -83.2333 26.7373
lowerback 13.5948 -1.87591 -2.45423
upperback 6.0725 -2.98253 4.78939
thorax -0.815778 -1.74162 6.85408
lowerneck -6.01279 -4.6841 -8.03018
upperneck 37.1739 -10.0142 6.42828
head 14.5529 -5.17753 2.53907
rclavicle 4.37326e-014 -1.98785e-014
rhumerus 6.27922 -45.855 -71.8284
rradius 32.2069
rwrist -12.7006
rhand -33.1123 -27.2662
rfingers 7.12502
rthumb -6.32259 -57.1519
lclavicle 4.37326e-014 -1.98785e-014
lhumerus -17.6282 -55.2478 103.57
lradius 78.4157
lwrist 72.8182
lhand -2.86046 65.799
lfingers 7.12502
lthumb 22.8479 -94.4656
rfemur -39.9349 -5.8146 11.2863
rtibia 48.5087
rfoot -21.0897 -8.89566
rtoes 4.81515
lfemur -33.1268 0.150104 -27.129
ltibia 30.2944
lfoot -11.3737 -3.10055
ltoes -15.573
1437
root 18.8803 17.6694 -4.22797 -9.65155 -83.5526 26.8012
lowerback 13.5405 -1.87752 -2.3998
upperback 6.06011 -2.97676 4.66612
thorax -0.811632 -1.73382 6.68636
lowerneck -5.914 -4.62105 -7.89712
upperneck 37.1677 -9.95477 6.40663
head 14.5104 -5.14446 2.5182
rclavicle -3.4191e-014 4.69132e-014
rhumerus 5.92051 -45.7465 -71.0585
rradius 32.2627
rwrist -12.6976
rhand -32.7383 -27.9543
rfingers 7.12502
rthumb -5.96155 -57.8504
lclavicle -3.4191e-014 4.69132e-014
lhumerus -17.735 -55.2116 103.511
lradius 78.4644
lwrist 72.6841
lhand -3.55228 65.572
lfingers 7.12502
lthumb 22.1838 -94.319
rfemur -39.8955 -5.87882 11.5813
rtibia 48.4846
rfoot -21.0126 -8.83994
rtoes 4.25759
lfemur -33.1885 0.0723133 -26.9503
ltibia 30.1618
lfoot -11.2147 -2.86152
ltoes -15.0824
1438
root 18.8967 17.679 -4.22394 -11.5314 -83.9555 28.699
lowerback 13.5128 -1.7696 -2.55797
upperback 6.06528 -2.85353 4.52153
thorax -0.808159 -1.67157 6.60418
lowerneck -5.85606 -4.59675 -7.68332
upperneck 37.1844 -9.91937 6.26125
head 14.4774 -5.12177 2.42751
rclavicle -1.90833e-014 1.90833e-014
rhumerus 5.39714 -45.4211 -70.1467
rradius 32.3106
rwrist -12.4681
rhand -33.5166 -25.453
rfingers 7.12502
rthumb -6.71294 -55.3266
lclavicle -1.90833e-014 1.90833e-014
lhumerus -17.9167 -55.2662 103.567
lradius 78.4583
lwrist 72.8339
lhand -4.00938 65.1822
lfingers 7.12502
lthumb 21.7449 -93.9808
rfemur -39.7687 -5.83944 11.6813
rtibia 48.4176
rfoot -21.0987 -8.74406
rtoes 4.40772
lfemur -33.1546 0.181593 -26.9693
ltibia 30.0255
lfoot -11.1189 -2.72518
ltoes -14.2881
1439
root 18.913 17.692 -4.21978 -12.9172 -84.3566 30.0987
lowerback 13.5115 -1.61113 -2.57425
upperback 6.07789 -2.64789 4.39063
thorax -0.828391 -1.56581 6.44565
lowerneck -5.94665 -4.63237 -7.41326
upperneck 37.2752 -9.99267 6.14372
head 14.5234 -5.12815 2.31819
rclavicle -1.66979e-014 7.31528e-014
rhumerus 4.81672 -44.9581 -69.1344
rradius 32.2023
rwrist -12.3336
rhand -33.9887 -24.1239
rfingers 7.12502
rthumb -7.1687 -53.9825
lclavicle -1.66979e-014 7.31528e-014
lhumerus -18.1168 -55.334 103.59
lradius 78.3662
lwrist 72.7646
lhand -3.72426 65.0596
lfingers 7.12502
lthumb 22.0187 -93.8262
rfemur -39.6726 -5.99905 11.9061
rtibia 48.3238
rfoot -21.1475 -8.63737
rtoes 4.18872
lfemur -33.1159 0.364032 -26.9212
ltibia 29.8543
lfoot -10.9165 -2.69889
ltoes -13.0831
